<svg style="enable-background:new 0 0 32 32" xmlns="http://www.w3.org/2000/svg" xml:space="preserve" version="1.1" y="0px" x="0px" viewBox="0 0 32 32"><g id="magnifying_x5F_glass" stroke-width=".85199" transform="matrix(-1.1737 0 0 1.1737 37.558 0)"><g stroke-width=".85199"><path d="m20.133 0c-6.539 0-11.86 5.32-11.86 11.863 0 1.566 1.7061 5.7081 2.2571 7.0751l-5.9092 5.1016 2.7577 3.2238 6.1442-5.3976c1.367.555 2.8537 1.8571 6.6092 1.8571 6.543 0 11.867-5.32 11.867-11.859.001-6.544-5.323-11.864-11.866-11.864zm0 19.727c-4.332 0-7.863-3.531-7.863-7.863 0-4.336 3.531-7.867 7.863-7.867 4.34 0 7.871 3.531 7.871 7.867 0 4.331-3.531 7.863-7.871 7.863z" stroke-width=".85199" fill="#fff"/></g></g></svg>
